<svg xmlns="http://www.w3.org/2000/svg" xmlns:xlink="http://www.w3.org/1999/xlink" width="500" zoomAndPan="magnify" viewBox="0 0 375 374.999991" height="500" preserveAspectRatio="xMidYMid meet" version="1.0"><defs><g/></defs><g fill="#ffffff" fill-opacity="1"><g transform="translate(80.780272, 235.499985)"><g><path d="M 12.34375 0 L 12.34375 -93.5625 L 67.5625 -93.5625 L 67.5625 -82.90625 L 24.03125 -82.90625 L 24.03125 -53.53125 L 63.015625 -53.53125 L 63.015625 -42.875 L 24.03125 -42.875 L 24.03125 -10.65625 L 67.5625 -10.65625 L 67.5625 0 Z M 12.34375 0 "/></g></g></g><g fill="#ffffff" fill-opacity="1"><g transform="translate(158.735772, 235.499985)"><g><path d="M 35.078125 -9.09375 C 40.628906 -9.09375 45.050781 -10.671875 48.34375 -13.828125 C 51.632812 -16.992188 53.28125 -21.265625 53.28125 -26.640625 L 53.28125 -83.15625 L 16.890625 -83.15625 L 16.890625 -93.5625 L 64.96875 -93.5625 L 64.96875 -26.640625 C 64.96875 -22.390625 64.273438 -18.53125 62.890625 -15.0625 C 61.503906 -11.601562 59.507812 -8.660156 56.90625 -6.234375 C 54.3125 -3.804688 51.171875 -1.941406 47.484375 -0.640625 C 43.804688 0.648438 39.671875 1.296875 35.078125 1.296875 C 31.265625 1.296875 27.710938 0.734375 24.421875 -0.390625 C 21.128906 -1.515625 18.207031 -3.140625 15.65625 -5.265625 C 13.101562 -7.390625 10.976562 -9.921875 9.28125 -12.859375 C 7.59375 -15.804688 6.445312 -19.097656 5.84375 -22.734375 L 17.546875 -22.734375 C 18.328125 -18.578125 20.316406 -15.265625 23.515625 -12.796875 C 26.722656 -10.328125 30.578125 -9.09375 35.078125 -9.09375 Z M 35.078125 -9.09375 "/></g></g></g><g fill="#ffffff" fill-opacity="1"><g transform="translate(236.691273, 235.499985)"><g><path d="M 38.984375 1.296875 C 34.734375 1.296875 30.789062 0.710938 27.15625 -0.453125 C 23.519531 -1.617188 20.378906 -3.304688 17.734375 -5.515625 C 15.085938 -7.722656 13.003906 -10.382812 11.484375 -13.5 C 9.972656 -16.625 9.175781 -20.132812 9.09375 -24.03125 L 21.4375 -24.03125 C 21.4375 -21.78125 21.890625 -19.742188 22.796875 -17.921875 C 23.710938 -16.109375 24.992188 -14.550781 26.640625 -13.25 C 28.285156 -11.945312 30.191406 -10.925781 32.359375 -10.1875 C 34.523438 -9.457031 36.816406 -9.09375 39.234375 -9.09375 C 44.691406 -9.09375 49.023438 -10.367188 52.234375 -12.921875 C 55.441406 -15.484375 57.046875 -18.972656 57.046875 -23.390625 C 57.046875 -27.109375 55.875 -30.421875 53.53125 -33.328125 C 51.195312 -36.234375 47.820312 -38.507812 43.40625 -40.15625 L 33.53125 -43.78125 C 19.0625 -49.070312 11.828125 -57.820312 11.828125 -70.03125 C 11.828125 -77.832031 14.296875 -83.921875 19.234375 -88.296875 C 24.171875 -92.671875 30.96875 -94.859375 39.625 -94.859375 C 43.695312 -94.859375 47.421875 -94.289062 50.796875 -93.15625 C 54.179688 -92.03125 57.109375 -90.382812 59.578125 -88.21875 C 62.046875 -86.0625 63.992188 -83.441406 65.421875 -80.359375 C 66.847656 -77.285156 67.609375 -73.84375 67.703125 -70.03125 L 55.359375 -70.03125 C 55.359375 -72.195312 54.921875 -74.164062 54.046875 -75.9375 C 53.179688 -77.71875 52.035156 -79.234375 50.609375 -80.484375 C 49.179688 -81.742188 47.515625 -82.71875 45.609375 -83.40625 C 43.703125 -84.101562 41.664062 -84.453125 39.5 -84.453125 C 34.5625 -84.453125 30.6875 -83.28125 27.875 -80.9375 C 25.0625 -78.601562 23.65625 -75.445312 23.65625 -71.46875 C 23.65625 -67.570312 24.710938 -64.34375 26.828125 -61.78125 C 28.953125 -59.226562 32.394531 -57.085938 37.15625 -55.359375 L 47.5625 -51.578125 C 54.488281 -49.066406 59.769531 -45.429688 63.40625 -40.671875 C 67.039062 -35.910156 68.859375 -30.28125 68.859375 -23.78125 C 68.859375 -15.976562 66.195312 -9.847656 60.875 -5.390625 C 55.550781 -0.929688 48.253906 1.296875 38.984375 1.296875 Z M 38.984375 1.296875 "/></g></g></g><g fill="#ffffff" fill-opacity="1"><g transform="translate(-1.599605, 202.499987)"><g><path d="M 19.3125 -9.4375 L 19.3125 -4.421875 L 1.703125 -11.484375 L 1.703125 -16.171875 L 19.3125 -23.25 L 19.3125 -18.25 L 8.21875 -14.046875 L 8.21875 -13.640625 Z M 19.3125 -9.4375 "/></g></g></g><g fill="#ffffff" fill-opacity="1"><g transform="translate(19.941265, 202.499987)"><g><path d="M 8.1875 -13.046875 C 6.09375 -13.046875 4.441406 -13.703125 3.234375 -15.015625 C 2.023438 -16.335938 1.421875 -18.335938 1.421875 -21.015625 C 1.421875 -23.703125 2.023438 -25.695312 3.234375 -27 C 4.441406 -28.3125 6.09375 -28.96875 8.1875 -28.96875 C 10.269531 -28.96875 11.910156 -28.304688 13.109375 -26.984375 C 14.304688 -25.671875 14.90625 -23.679688 14.90625 -21.015625 C 14.90625 -18.335938 14.304688 -16.335938 13.109375 -15.015625 C 11.910156 -13.703125 10.269531 -13.046875 8.1875 -13.046875 Z M 10.15625 0 L 5.390625 0 L 5.3125 -0.40625 L 24.421875 -28.5625 L 29.1875 -28.5625 L 29.265625 -28.140625 Z M 8.1875 -16.765625 C 8.976562 -16.765625 9.566406 -17.078125 9.953125 -17.703125 C 10.347656 -18.328125 10.546875 -19.429688 10.546875 -21.015625 C 10.546875 -22.609375 10.347656 -23.71875 9.953125 -24.34375 C 9.566406 -24.96875 8.976562 -25.28125 8.1875 -25.28125 C 7.632812 -25.28125 7.179688 -25.148438 6.828125 -24.890625 C 6.484375 -24.640625 6.21875 -24.203125 6.03125 -23.578125 C 5.851562 -22.953125 5.765625 -22.097656 5.765625 -21.015625 C 5.765625 -19.921875 5.851562 -19.0625 6.03125 -18.4375 C 6.21875 -17.820312 6.484375 -17.390625 6.828125 -17.140625 C 7.171875 -16.890625 7.625 -16.765625 8.1875 -16.765625 Z M 26.484375 0.40625 C 24.390625 0.40625 22.738281 -0.242188 21.53125 -1.546875 C 20.332031 -2.859375 19.734375 -4.859375 19.734375 -7.546875 C 19.734375 -10.222656 20.332031 -12.21875 21.53125 -13.53125 C 22.738281 -14.851562 24.390625 -15.515625 26.484375 -15.515625 C 28.566406 -15.515625 30.207031 -14.851562 31.40625 -13.53125 C 32.601562 -12.21875 33.203125 -10.222656 33.203125 -7.546875 C 33.203125 -4.867188 32.601562 -2.875 31.40625 -1.5625 C 30.207031 -0.25 28.566406 0.40625 26.484375 0.40625 Z M 26.484375 -3.296875 C 27.015625 -3.296875 27.453125 -3.421875 27.796875 -3.671875 C 28.148438 -3.929688 28.410156 -4.367188 28.578125 -4.984375 C 28.753906 -5.609375 28.84375 -6.460938 28.84375 -7.546875 C 28.84375 -8.640625 28.753906 -9.492188 28.578125 -10.109375 C 28.410156 -10.722656 28.148438 -11.15625 27.796875 -11.40625 C 27.453125 -11.664062 27.015625 -11.796875 26.484375 -11.796875 C 25.941406 -11.796875 25.492188 -11.664062 25.140625 -11.40625 C 24.796875 -11.15625 24.53125 -10.722656 24.34375 -10.109375 C 24.164062 -9.492188 24.078125 -8.640625 24.078125 -7.546875 C 24.078125 -6.460938 24.164062 -5.609375 24.34375 -4.984375 C 24.53125 -4.367188 24.796875 -3.929688 25.140625 -3.671875 C 25.492188 -3.421875 25.941406 -3.296875 26.484375 -3.296875 Z M 26.484375 -3.296875 "/></g></g></g><g fill="#ffffff" fill-opacity="1"><g transform="translate(54.547258, 202.499987)"><g><path d="M 19.828125 -16.109375 L 2.1875 -16.109375 L 2.1875 -20.609375 L 19.828125 -20.609375 Z M 19.828125 -7.953125 L 2.1875 -7.953125 L 2.1875 -12.453125 L 19.828125 -12.453125 Z M 19.828125 -7.953125 "/></g></g></g><g fill="#ffffff" fill-opacity="1"><g transform="translate(318.843735, 202.499987)"><g><path d="M 8.1875 -13.046875 C 6.09375 -13.046875 4.441406 -13.703125 3.234375 -15.015625 C 2.023438 -16.335938 1.421875 -18.335938 1.421875 -21.015625 C 1.421875 -23.703125 2.023438 -25.695312 3.234375 -27 C 4.441406 -28.3125 6.09375 -28.96875 8.1875 -28.96875 C 10.269531 -28.96875 11.910156 -28.304688 13.109375 -26.984375 C 14.304688 -25.671875 14.90625 -23.679688 14.90625 -21.015625 C 14.90625 -18.335938 14.304688 -16.335938 13.109375 -15.015625 C 11.910156 -13.703125 10.269531 -13.046875 8.1875 -13.046875 Z M 10.15625 0 L 5.390625 0 L 5.3125 -0.40625 L 24.421875 -28.5625 L 29.1875 -28.5625 L 29.265625 -28.140625 Z M 8.1875 -16.765625 C 8.976562 -16.765625 9.566406 -17.078125 9.953125 -17.703125 C 10.347656 -18.328125 10.546875 -19.429688 10.546875 -21.015625 C 10.546875 -22.609375 10.347656 -23.71875 9.953125 -24.34375 C 9.566406 -24.96875 8.976562 -25.28125 8.1875 -25.28125 C 7.632812 -25.28125 7.179688 -25.148438 6.828125 -24.890625 C 6.484375 -24.640625 6.21875 -24.203125 6.03125 -23.578125 C 5.851562 -22.953125 5.765625 -22.097656 5.765625 -21.015625 C 5.765625 -19.921875 5.851562 -19.0625 6.03125 -18.4375 C 6.21875 -17.820312 6.484375 -17.390625 6.828125 -17.140625 C 7.171875 -16.890625 7.625 -16.765625 8.1875 -16.765625 Z M 26.484375 0.40625 C 24.390625 0.40625 22.738281 -0.242188 21.53125 -1.546875 C 20.332031 -2.859375 19.734375 -4.859375 19.734375 -7.546875 C 19.734375 -10.222656 20.332031 -12.21875 21.53125 -13.53125 C 22.738281 -14.851562 24.390625 -15.515625 26.484375 -15.515625 C 28.566406 -15.515625 30.207031 -14.851562 31.40625 -13.53125 C 32.601562 -12.21875 33.203125 -10.222656 33.203125 -7.546875 C 33.203125 -4.867188 32.601562 -2.875 31.40625 -1.5625 C 30.207031 -0.25 28.566406 0.40625 26.484375 0.40625 Z M 26.484375 -3.296875 C 27.015625 -3.296875 27.453125 -3.421875 27.796875 -3.671875 C 28.148438 -3.929688 28.410156 -4.367188 28.578125 -4.984375 C 28.753906 -5.609375 28.84375 -6.460938 28.84375 -7.546875 C 28.84375 -8.640625 28.753906 -9.492188 28.578125 -10.109375 C 28.410156 -10.722656 28.148438 -11.15625 27.796875 -11.40625 C 27.453125 -11.664062 27.015625 -11.796875 26.484375 -11.796875 C 25.941406 -11.796875 25.492188 -11.664062 25.140625 -11.40625 C 24.796875 -11.15625 24.53125 -10.722656 24.34375 -10.109375 C 24.164062 -9.492188 24.078125 -8.640625 24.078125 -7.546875 C 24.078125 -6.460938 24.164062 -5.609375 24.34375 -4.984375 C 24.53125 -4.367188 24.796875 -3.929688 25.140625 -3.671875 C 25.492188 -3.421875 25.941406 -3.296875 26.484375 -3.296875 Z M 26.484375 -3.296875 "/></g></g></g><g fill="#ffffff" fill-opacity="1"><g transform="translate(353.449728, 202.499987)"><g><path d="M 19.8125 -11.484375 L 2.1875 -4.421875 L 2.1875 -9.4375 L 13.296875 -13.640625 L 13.296875 -14.046875 L 2.1875 -18.25 L 2.1875 -23.25 L 19.8125 -16.171875 Z M 19.8125 -11.484375 "/></g></g></g></svg>