<svg xmlns="http://www.w3.org/2000/svg" xmlns:xlink="http://www.w3.org/1999/xlink" width="500" zoomAndPan="magnify" viewBox="0 0 375 374.999991" height="500" preserveAspectRatio="xMidYMid meet" version="1.0"><defs><clipPath id="f2d272c66e"><path d="M 4.089844 0 L 370.839844 0 L 370.839844 375 L 4.089844 375 Z M 4.089844 0 " clip-rule="nonzero"/></clipPath></defs><g clip-path="url(#f2d272c66e)"><path fill="#222c37" d="M 243.097656 187.484375 L 308.726562 74.144531 L 340.445312 187.484375 L 308.726562 300.785156 Z M 211.121094 205.886719 L 276.75 319.199219 L 162.449219 289.921875 L 79.867188 205.886719 Z M 276.734375 55.726562 L 211.121094 169.058594 L 79.867188 169.058594 L 162.449219 85.027344 Z M 370.417969 148.917969 L 330.378906 -0.0546875 L 180.949219 39.867188 L 158.835938 78.765625 L 113.945312 78.445312 L 4.570312 187.488281 L 113.945312 296.515625 L 113.949219 296.515625 L 158.820312 296.1875 L 180.960938 335.085938 L 330.378906 375.003906 L 370.417969 226.0625 L 347.691406 187.488281 Z M 370.417969 148.917969 " fill-opacity="1" fill-rule="nonzero"/></g></svg>